<svg width="108" height="192" viewBox="0 0 108 192" fill="none" xmlns="http://www.w3.org/2000/svg">
<rect x="0.5" y="176.5" width="107" height="15" fill="white" stroke="black"/>
<path d="M0.5 144.5H107.5V159.5H0.5V144.5ZM107.5 160.5V175.5H0.5V160.5H107.5Z" fill="white" stroke="black"/>
<rect x="0.5" y="160.5" width="107" height="15" fill="#D9D9D9" stroke="black"/>
<rect x="0.5" y="128.5" width="107" height="15" fill="#D9D9D9" stroke="black"/>
<rect x="0.5" y="112.5" width="107" height="15" fill="white" stroke="black"/>
<rect x="0.5" y="96.5" width="107" height="15" fill="#D9D9D9" stroke="black"/>
<rect x="0.5" y="80.5" width="107" height="15" fill="white" stroke="black"/>
<path d="M0.5 48.5H107.5V63.5H0.5V48.5ZM107.5 64.5V79.5H0.5V64.5H107.5Z" fill="white" stroke="black"/>
<rect x="0.5" y="64.5" width="107" height="15" fill="#D9D9D9" stroke="black"/>
<rect x="0.5" y="32.5" width="107" height="15" fill="#D9D9D9" stroke="black"/>
<rect x="0.5" y="16.5" width="107" height="15" fill="white" stroke="black"/>
<rect x="0.5" y="0.5" width="107" height="15" fill="#D9D9D9" stroke="black"/>
</svg>
